<svg width="9" height="15" viewBox="0 0 9 15" fill="none" xmlns="http://www.w3.org/2000/svg">
<path d="M9 0.978586C9.00017 1.10713 8.97339 1.23443 8.92119 1.35318C8.86898 1.47193 8.79239 1.57979 8.69582 1.67056L2.50707 7.50279L8.69581 13.335C8.88795 13.5191 8.99513 13.7672 8.99401 14.0254C8.9929 14.2835 8.88357 14.5308 8.68986 14.7134C8.49614 14.8959 8.23373 14.9989 7.95978 15C7.68583 15.001 7.42253 14.9 7.22725 14.719L0.304136 8.19477C0.1094 8.01124 5.46429e-07 7.76233 5.66023e-07 7.50279C5.85618e-07 7.24326 0.109401 6.99435 0.304136 6.81082L7.22725 0.286612C7.37248 0.149757 7.55751 0.0565592 7.75895 0.0188023C7.96039 -0.0189546 8.16918 0.000425002 8.35893 0.0744912C8.54868 0.148558 8.71086 0.273986 8.82497 0.434911C8.93908 0.595838 8.99999 0.785038 9 0.978586Z" fill="#212121"/>
</svg>
